<?xml version="1.0" encoding="UTF-8" standalone="no"?>
<!-- Generator: Adobe Illustrator 19.1.0, SVG Export Plug-In . SVG Version: 6.00 Build 0)  -->

<svg
   xmlns:dc="http://purl.org/dc/elements/1.1/"
   xmlns:cc="http://creativecommons.org/ns#"
   xmlns:rdf="http://www.w3.org/1999/02/22-rdf-syntax-ns#"
   xmlns:svg="http://www.w3.org/2000/svg"
   xmlns="http://www.w3.org/2000/svg"
   xmlns:sodipodi="http://sodipodi.sourceforge.net/DTD/sodipodi-0.dtd"
   xmlns:inkscape="http://www.inkscape.org/namespaces/inkscape"
   version="1.1"
   x="0px"
   y="0px"
   viewBox="0 0 64 64"
   style="enable-background:new 0 0 64 64;"
   xml:space="preserve"
   id="svg38"
   sodipodi:docname="Circle-icons-hourglass.svg"
   inkscape:version="0.92.4 (5da689c313, 2019-01-14)"><metadata
   id="metadata44"><rdf:RDF><cc:Work
       rdf:about=""><dc:format>image/svg+xml</dc:format><dc:type
         rdf:resource="http://purl.org/dc/dcmitype/StillImage" /></cc:Work></rdf:RDF></metadata><defs
   id="defs42">
	
	
	
	
	
	
	
	
</defs><sodipodi:namedview
   pagecolor="#ffffff"
   bordercolor="#666666"
   borderopacity="1"
   objecttolerance="10"
   gridtolerance="10"
   guidetolerance="10"
   inkscape:pageopacity="0"
   inkscape:pageshadow="2"
   inkscape:window-width="1680"
   inkscape:window-height="987"
   id="namedview40"
   showgrid="false"
   inkscape:zoom="7.375"
   inkscape:cx="2.9605891"
   inkscape:cy="39.918967"
   inkscape:window-x="892"
   inkscape:window-y="-8"
   inkscape:window-maximized="1"
   inkscape:current-layer="svg38" />
<style
   type="text/css"
   id="style2">
	.st0{fill:#C75C5C;}
	.st1{opacity:0.2;}
	.st2{fill:#231F20;}
	.st3{fill:#FFFFFF;}
	.st4{fill:#4F5D73;}
	.st5{opacity:0.3;}
	.st6{fill:#F5CF87;}
</style>
<g
   id="g6"
   style="fill:#000000">
		<circle
   style="fill:#000000"
   id="circle4"
   r="32"
   cy="32"
   cx="32"
   class="st0" />
	</g><g
   style="opacity:0.2"
   id="g10"
   class="st1">
		<path
   style="fill:#231f20"
   inkscape:connector-curvature="0"
   id="path8"
   d="m 46,50 h -2 c 0,-0.7 0,-2 0,-4 0,-4.5 -3,-7.4 -3,-7.4 0,0 -3,-2.8 -3.9,-3.7 -0.9,-0.9 0,-1.8 0,-1.8 0,0 1.3,-1.3 4.2,-4 2.8,-2.7 2.7,-6.7 2.7,-6.7 v -5.1 l -12,-1 -12,1 v 5.1 c 0,0 -0.1,3.9 2.7,6.7 2.8,2.7 4.2,4 4.2,4 0,0 0.9,0.9 0,1.8 -0.9,0.9 -3.9,3.7 -3.9,3.7 0,0 -3,2.8 -3,7.4 0,2 0,3.3 0,4 h -2 c -1.1,0 -2,0.9 -2,2 0,1.1 0.9,2 2,2 h 28 c 1.1,0 2,-0.9 2,-2 0,-1.1 -0.9,-2 -2,-2 z"
   class="st2" />
	</g><g
   id="g14">
		<path
   style="fill:#ffffff"
   inkscape:connector-curvature="0"
   id="path12"
   d="m 41,36.6 c 0,0 -3,-2.8 -3.9,-3.7 -0.9,-0.9 0,-1.8 0,-1.8 0,0 1.3,-1.3 4.2,-4 2.8,-2.7 2.7,-6.7 2.7,-6.7 v -5.1 l -12,-1 -12,1 v 5.1 c 0,0 -0.1,3.9 2.7,6.7 2.8,2.7 4.2,4 4.2,4 0,0 0.9,0.9 0,1.8 -0.9,0.9 -3.9,3.7 -3.9,3.7 0,0 -3,2.8 -3,7.4 0,4.5 0,5.1 0,5.1 h 12 12 c 0,0 0,-0.5 0,-5.1 0,-4.5 -3,-7.4 -3,-7.4 z"
   class="st3" />
	</g><g
   id="g18">
		<path
   style="fill:#000000"
   inkscape:connector-curvature="0"
   id="path16"
   d="M 31,43 V 32 c 0,-2.1 -1,-3.4 -1.3,-3.7 l -4.2,-4 C 24,22.9 24,20.6 24,20.6 h 8 8 c 0,0 0,0 0,0 0,0 0,2.3 -1.5,3.7 l -4.2,4 C 33.9,28.6 33,29.9 33,32 v 11 z"
   class="st4" />
	</g><g
   style="opacity:0.3"
   id="g22"
   class="st5">
		<path
   style="fill:#231f20"
   inkscape:connector-curvature="0"
   id="path20"
   d="m 48,16 c 0,1.1 -0.9,2 -2,2 H 18 c -1.1,0 -2,-0.9 -2,-2 v 0 c 0,-1.1 0.9,-2 2,-2 h 28 c 1.1,0 2,0.9 2,2 z"
   class="st2" />
	</g><g
   id="g26"
   style="fill:#ffffff">
		<path
   style="fill:#ffffff"
   inkscape:connector-curvature="0"
   id="path24"
   d="m 48,14 c 0,1.1 -0.9,2 -2,2 H 18 c -1.1,0 -2,-0.9 -2,-2 v 0 c 0,-1.1 0.9,-2 2,-2 h 28 c 1.1,0 2,0.9 2,2 z"
   class="st6" />
	</g><g
   id="g30"
   style="fill:#ffffff">
		<path
   style="fill:#ffffff"
   inkscape:connector-curvature="0"
   id="path28"
   d="m 48,50 c 0,1.1 -0.9,2 -2,2 H 18 c -1.1,0 -2,-0.9 -2,-2 v 0 c 0,-1.1 0.9,-2 2,-2 h 28 c 1.1,0 2,0.9 2,2 z"
   class="st6" />
	</g><g
   id="g34"
   style="fill:#000000">
		<polygon
   style="fill:#000000"
   id="polygon32"
   points="23,48 23,48 32,40 41,48 "
   class="st4" />
	</g>
<g
   id="Layer_2">
</g>
</svg>