<?xml version="1.0" encoding="UTF-8"?>
<svg enable-background="new 0 0 64 64" version="1.1" viewBox="0 0 64 64" xml:space="preserve" xmlns="http://www.w3.org/2000/svg" xmlns:cc="http://creativecommons.org/ns#" xmlns:dc="http://purl.org/dc/elements/1.1/" xmlns:rdf="http://www.w3.org/1999/02/22-rdf-syntax-ns#"><metadata><rdf:RDF><cc:Work rdf:about=""><dc:format>image/svg+xml</dc:format><dc:type rdf:resource="http://purl.org/dc/dcmitype/StillImage"/><dc:title/></cc:Work></rdf:RDF></metadata>
<g>
		<circle class="st0" cx="32" cy="32" r="32"/>
	</g><g class="st1" opacity=".2">
		<path class="st2" d="m46 50h-2v-4c0-4.5-3-7.4-3-7.4s-3-2.8-3.9-3.7 0-1.8 0-1.8 1.3-1.3 4.2-4c2.8-2.7 2.7-6.7 2.7-6.7v-5.1l-12-1-12 1v5.1s-0.1 3.9 2.7 6.7c2.8 2.7 4.2 4 4.2 4s0.9 0.9 0 1.8-3.9 3.7-3.9 3.7-3 2.8-3 7.4v4h-2c-1.1 0-2 0.9-2 2s0.9 2 2 2h28c1.1 0 2-0.9 2-2s-0.9-2-2-2z" fill="#231f20"/>
	</g>
		<path class="st3" d="m41 36.6s-3-2.8-3.9-3.7 0-1.8 0-1.8 1.3-1.3 4.2-4c2.8-2.7 2.7-6.7 2.7-6.7v-5.1l-12-1-12 1v5.1s-0.1 3.9 2.7 6.7c2.8 2.7 4.2 4 4.2 4s0.9 0.9 0 1.8-3.9 3.7-3.9 3.7-3 2.8-3 7.4v5.1h24v-5.1c0-4.5-3-7.4-3-7.4z" fill="#fff"/>
	
		<path class="st4" d="m31 43v-11c0-2.1-1-3.4-1.3-3.7l-4.2-4c-1.5-1.4-1.5-3.7-1.5-3.7h16s0 2.3-1.5 3.7l-4.2 4c-0.4 0.3-1.3 1.6-1.3 3.7v11z"/>
	<g class="st5" opacity=".3">
		<path class="st2" d="m48 16c0 1.1-0.9 2-2 2h-28c-1.1 0-2-0.9-2-2s0.9-2 2-2h28c1.1 0 2 0.9 2 2z" fill="#231f20"/>
	</g><g fill="#fff">
		<path class="st6" d="m48 14c0 1.1-0.9 2-2 2h-28c-1.1 0-2-0.9-2-2s0.9-2 2-2h28c1.1 0 2 0.9 2 2z" fill="#fff"/>
	</g><g fill="#fff">
		<path class="st6" d="m48 50c0 1.1-0.9 2-2 2h-28c-1.1 0-2-0.9-2-2s0.9-2 2-2h28c1.1 0 2 0.9 2 2z" fill="#fff"/>
	</g><g>
		<polygon class="st4" points="23 48 23 48 32 40 41 48"/>
	</g>

</svg>
